<?xml version="1.0" encoding="utf-8"?>
<!-- Generator: Adobe Illustrator 26.0.2, SVG Export Plug-In . SVG Version: 6.00 Build 0)  -->
<svg version="1.1" id="Layer_1" xmlns="http://www.w3.org/2000/svg" xmlns:xlink="http://www.w3.org/1999/xlink" x="0px" y="0px"
	 viewBox="0 0 323.8 178.2" style="enable-background:new 0 0 323.8 178.2;" xml:space="preserve">
<style type="text/css">
	.st0{fill:#FFFFFF;}
</style>
<g>
	<path class="st0" d="M156.9,40.9c0.3,7.2,6.9,13.3,13.9,13.3c6.6-0.1,11.2-4.1,12.9-8.7h4.9c-2.5,7.3-9.4,12.9-17.6,12.9
		c-10,0-18.7-8.3-18.7-19.2c0-10.4,8.2-19.2,18.6-19.4c7.9,0.1,13.4,4.8,16,9.4c2.4,4,3,8.1,2.8,11.6H156.9z M184.9,36.7
		c-1.4-8.7-8.3-12.6-14-12.6c-5.6,0-12.7,3.9-14,12.6H184.9z"/>
	<g>
		<path class="st0" d="M143.9,99.8h0.2v-9.6h13.4v4.3h-8.4v42.1c0,3.8-1,7.1-2.9,10c-1.9,2.9-4.7,5.1-8.1,6.8
			c-3.5,1.6-7.4,2.4-11.8,2.4c-7.6,0-13.4-2.1-17.6-6.3l3.3-3.2c4.1,3.4,9.1,5.1,14.9,5.1c3.5,0,6.6-0.6,9.2-1.9s4.6-3,6-5.2
			c1.4-2.2,2.1-4.7,2.1-7.5v-11.3h-0.2c-1.9,3.1-4.4,5.5-7.5,7.3c-3.1,1.8-6.6,2.6-10.5,2.6c-4.2,0-8-1-11.4-2.9
			c-3.4-1.9-6.1-4.6-8.1-8s-2.9-7.3-2.9-11.6c0-4.3,1-8.3,3-11.8c2-3.6,4.7-6.4,8.2-8.4s7.3-3.1,11.4-3.1
			C133.7,89.6,139.7,93,143.9,99.8z M126.2,131.2c3.4,0,6.5-0.9,9.3-2.6c2.8-1.7,4.9-4,6.4-6.9c1.5-2.9,2.3-6,2.3-9.2
			c0-3.2-0.8-6.3-2.4-9.2c-1.6-2.9-3.8-5.1-6.5-6.9c-2.8-1.7-5.8-2.6-9.2-2.6c-3.2,0-6.2,0.8-8.9,2.4c-2.7,1.6-4.8,3.9-6.3,6.7
			c-1.5,2.9-2.3,6.1-2.3,9.7c0,3.6,0.8,6.8,2.3,9.6c1.5,2.8,3.6,5,6.3,6.6C119.8,130.4,122.8,131.2,126.2,131.2z"/>
		<path class="st0" d="M205,113.5h-40.8c0.1,3.7,1,6.9,2.7,9.7c1.7,2.8,4,4.9,6.8,6.4c2.8,1.5,5.9,2.2,9.2,2.2
			c3.8,0,7.2-0.8,10.2-2.3c2.9-1.5,5.6-3.9,8-7.2l3.9,1.8c-5.3,7.9-12.7,11.8-22.2,11.8c-4.6,0-8.6-1-12.2-3c-3.6-2-6.4-4.8-8.4-8.4
			c-2-3.6-3-7.6-3-12.1c0-4.5,1-8.6,3-12.1c2-3.6,4.8-6.4,8.4-8.4c3.6-2,7.5-3,11.9-3c4.6,0,8.6,1.1,12.1,3.3
			c3.5,2.2,6.1,5.1,7.9,8.9C204.1,104.9,205,109,205,113.5z M181.9,93.2c-4.6,0-8.5,1.4-11.6,4.3c-3.2,2.9-5.1,6.8-5.9,11.8h35.5
			c-0.8-4.9-2.8-8.8-6-11.7C190.8,94.6,186.8,93.2,181.9,93.2z"/>
		<path class="st0" d="M257.1,112.5c0,4.3-1,8.3-3,11.8c-2,3.6-4.7,6.4-8.2,8.5c-3.4,2.1-7.3,3.1-11.6,3.1c-4.3,0-8.2-1-11.6-3
			c-3.4-2-6.1-4.8-8.1-8.4c-1.9-3.6-2.9-7.6-2.9-12c0-4.3,1-8.3,3-11.9c2-3.6,4.7-6.4,8.2-8.5c3.5-2,7.3-3.1,11.5-3.1
			c4.3,0,8.1,1.1,11.6,3.2c3.4,2.1,6.2,5,8.2,8.6C256.1,104.4,257.1,108.3,257.1,112.5z M234.3,131.5c3.4,0,6.5-0.8,9.1-2.5
			c2.7-1.7,4.7-4,6.3-6.8c1.5-2.9,2.3-6.1,2.3-9.7c0-3.5-0.8-6.7-2.3-9.6c-1.5-2.9-3.6-5.2-6.3-6.9s-5.7-2.6-9.2-2.6
			c-3.2,0-6.2,0.9-8.9,2.6c-2.7,1.7-4.8,4-6.3,6.9s-2.2,6.1-2.2,9.6s0.8,6.7,2.3,9.6c1.5,2.9,3.6,5.2,6.3,6.9
			C228.1,130.7,231,131.5,234.3,131.5z"/>
	</g>
	<polygon class="st0" points="86.5,61.7 64.6,86 76.5,86 76.5,123.1 85.2,123.1 85.2,78.8 76.8,78.8 	"/>
	<polygon class="st0" points="94.1,128.6 94.1,136.9 50.9,136.9 50.9,96.1 32.3,96.1 92.3,36.4 134.9,78.8 123.2,78.8 92.3,48.1 
		52.4,87.8 60.9,87.8 60.9,128.6 	"/>
	<polygon class="st0" points="154.4,76.9 129.9,52.4 120.9,61.3 114.4,54.8 129.9,39.2 167.6,76.9 	"/>
	<polygon class="st0" points="121.9,26.7 137.6,5.8 145.6,26.7 	"/>
	<path class="st0" d="M138.1,14.6C124,5.4,107.2,0,89.1,0C39.9,0,0,39.9,0,89.1s39.9,89.1,89.1,89.1c14.4,0,28-3.4,40.1-9.5
		c-9.8,3.7-21.1,5.7-34.1,5.7c-44.5,0-80.5-35.6-80.5-79.6s36.1-79.6,80.5-79.6c13.1,0,25.6,3.1,36.5,8.6L138.1,14.6z"/>
	<path class="st0" d="M271.1,20.8v6.6H271c-4.1-6.5-10.6-7.5-13.8-7.5c-9.4,0-18.8,7.8-18.8,19.5c0,11.6,9.3,19.1,18.8,19.1
		c5.2,0,11.2-2.4,13.8-7.6h0.1v3.2c0,10.2-7,13.7-13,13.7c-6,0-9.6-3-11.6-5.8h-5.4c4.1,8.5,12.5,10.1,17,10.1
		c1.4,0,9.7-0.3,14.2-6.8c3.3-4.5,3.3-9.5,3.3-13.5v-31H271.1z M257.1,54.2c-8.1,0-14.2-7-14.2-15c0-8.1,6-15.1,14.2-15.1
		c8.1,0,14.2,7.1,14.2,15.1C271.4,45.5,266.7,54.2,257.1,54.2z"/>
	<path class="st0" d="M228,20.8v6.6h-0.1c-4.1-6.5-10.6-7.5-13.8-7.5c-9.4,0-18.8,7.8-18.8,19.5c0,11.6,9.3,19.1,18.8,19.1
		c5.2,0,11.2-2.4,13.8-7.6h0.1v3.2c0,10.2-7,13.7-13,13.7c-6,0-9.6-3-11.6-5.8h-5.4c4.1,8.5,12.5,10.1,17,10.1
		c1.4,0,9.7-0.3,14.2-6.8c3.3-4.5,3.3-9.5,3.3-13.5v-31H228z M214.1,54.2c-8.1,0-14.2-7-14.2-15c0-8.1,6-15.1,14.2-15.1
		c8.1,0,14.2,7.1,14.2,15.1C228.3,45.5,223.6,54.2,214.1,54.2z"/>
	<path class="st0" d="M303,70.3c0,0-8.2-5.6-8.6-16.7c-0.6-13.8,4.6-20.1,4.6-20.1s12.4,9.7,13,18.4C312.7,62.3,307.1,68.1,303,70.3
		z"/>
	<path class="st0" d="M300.8,38.1c0,0,6.6,4.9,7.3,13.9c0.8,10.4-2.3,13.5-2.3,13.5s0.9-6,0.4-12C305.3,43.9,300.8,38.1,300.8,38.1z
		"/>
	<path class="st0" d="M304.8,71.2c0,0,4-4.8,9.1-4.3c6.8,0.7,9.9,6.7,9.9,6.7s-4.9,3.4-10,3.1S304.8,71.2,304.8,71.2z"/>
</g>
</svg>
