<svg version="1.1" xmlns="http://www.w3.org/2000/svg" viewBox="-5 -5 180 190">
  <style>
    .icon-color { fill: #00AEEF; }
    @media (prefers-color-scheme: dark) {
      .icon-color { fill: #FFFFFF; }
    }
  </style>
  <g class="icon-color">
    <polygon points="86.5,61.7 64.6,86 76.5,86 76.5,123.1 85.2,123.1 85.2,78.8 76.8,78.8" />
    <polygon points="94.1,128.6 94.1,136.9 50.9,136.9 50.9,96.1 32.3,96.1 92.3,36.4 134.9,78.8 123.2,78.8 92.3,48.1 52.4,87.8 60.9,87.8 60.9,128.6" />
    <polygon points="154.4,76.9 129.9,52.4 120.9,61.3 114.4,54.8 129.9,39.2 167.6,76.9" />
    <polygon points="121.9,26.7 137.6,5.8 145.6,26.7" />
    <path d="M138.1,14.6C124,5.4,107.2,0,89.1,0C39.9,0,0,39.9,0,89.1s39.9,89.1,89.1,89.1c14.4,0,28-3.4,40.1-9.5c-9.8,3.7-21.1,5.7-34.1,5.7c-44.5,0-80.5-35.6-80.5-79.6s36.1-79.6,80.5-79.6c13.1,0,25.6,3.1,36.5,8.6L138.1,14.6z"/>
  </g>
</svg>
